HIERARCHY
ROOT Hips
{
	OFFSET 0.000000 97.167313 0.000000
	CHANNELS 6 Xposition Yposition Zposition Xrotation Yrotation Zrotation
	JOINT Spine
	{
		OFFSET 0.000000 13.784798 0.064400
		CHANNELS 3 Xrotation Yrotation Zrotation
		JOINT Spine1
		{
			OFFSET 0.000000 12.037903 0.404700
			CHANNELS 3 Xrotation Yrotation Zrotation
			JOINT Spine2
			{
				OFFSET 0.000000 17.795601 0.420200
				CHANNELS 3 Xrotation Yrotation Zrotation
				JOINT Neck
				{
					OFFSET 0.000000 39.131302 11.954600
					CHANNELS 3 Xrotation Yrotation Zrotation
					JOINT Head
					{
						OFFSET 0.000000 14.456192 15.627699
						CHANNELS 3 Xrotation Yrotation Zrotation
						JOINT HeadTop_End
						{
							OFFSET 0.000000 15.703506 7.603401
							CHANNELS 3 Xrotation Yrotation Zrotation
							End Site
							{
								OFFSET 0.000000 17.447403 0.000000
							}
						}
					}
				}
				JOINT LeftShoulder
				{
					OFFSET 17.399500 24.608795 1.168800
					CHANNELS 3 Xrotation Yrotation Zrotation
					JOINT LeftArm
					{
						OFFSET 18.980635 5.765305 1.818600
						CHANNELS 3 Xrotation Yrotation Zrotation
						JOINT LeftForeArm
						{
							OFFSET 49.290169 0.000000 0.000000
							CHANNELS 3 Xrotation Yrotation Zrotation
							JOINT LeftHand
							{
								OFFSET 31.562012 0.000000 0.000000
								CHANNELS 3 Xrotation Yrotation Zrotation
								JOINT LeftHandThumb1
								{
									OFFSET 6.133995 -4.388519 7.076070
									CHANNELS 3 Xrotation Yrotation Zrotation
									JOINT LeftHandThumb2
									{
										OFFSET 6.037666 -3.485840 3.485847
										CHANNELS 3 Xrotation Yrotation Zrotation
										JOINT LeftHandThumb3
										{
											OFFSET 6.496506 -3.750763 3.750761
											CHANNELS 3 Xrotation Yrotation Zrotation
											JOINT LeftHandThumb4
											{
												OFFSET 5.616882 -3.242905 3.242910
												CHANNELS 3 Xrotation Yrotation Zrotation
												End Site
												{
													OFFSET -1.254608 7.132141 0.375429
												}
											}
										}
									}
								}
								JOINT LeftHandPinky1
								{
									OFFSET 18.920792 -0.453171 -11.426712
									CHANNELS 3 Xrotation Yrotation Zrotation
									JOINT LeftHandPinky2
									{
										OFFSET 4.919586 0.000000 0.000000
										CHANNELS 3 Xrotation Yrotation Zrotation
										JOINT LeftHandPinky3
										{
											OFFSET 5.233047 0.000000 0.000000
											CHANNELS 3 Xrotation Yrotation Zrotation
											JOINT LeftHandPinky4
											{
												OFFSET 5.571716 0.000000 0.000000
												CHANNELS 3 Xrotation Yrotation Zrotation
												End Site
												{
													OFFSET -3.459808 4.342407 -0.466164
												}
											}
										}
									}
								}
								JOINT LeftHandRing1
								{
									OFFSET 22.726120 -0.094986 -6.500475
									CHANNELS 3 Xrotation Yrotation Zrotation
									JOINT LeftHandRing2
									{
										OFFSET 6.408615 0.000000 0.000000
										CHANNELS 3 Xrotation Yrotation Zrotation
										JOINT LeftHandRing3
										{
											OFFSET 6.150223 0.000000 0.000000
											CHANNELS 3 Xrotation Yrotation Zrotation
											JOINT LeftHandRing4
											{
												OFFSET 6.145386 0.000000 0.000000
												CHANNELS 3 Xrotation Yrotation Zrotation
												End Site
												{
													OFFSET -3.671402 4.923981 -0.202372
												}
											}
										}
									}
								}
								JOINT LeftHandMiddle1
								{
									OFFSET 23.373947 0.000000 0.000001
									CHANNELS 3 Xrotation Yrotation Zrotation
									JOINT LeftHandMiddle2
									{
										OFFSET 6.996567 0.000000 0.000000
										CHANNELS 3 Xrotation Yrotation Zrotation
										JOINT LeftHandMiddle3
										{
											OFFSET 7.015945 0.000000 0.000000
											CHANNELS 3 Xrotation Yrotation Zrotation
											JOINT LeftHandMiddle4
											{
												OFFSET 7.721573 0.000000 0.000000
												CHANNELS 3 Xrotation Yrotation Zrotation
												End Site
												{
													OFFSET -4.651108 6.158463 0.251582
												}
											}
										}
									}
								}
								JOINT LeftHandIndex1
								{
									OFFSET 21.310577 -0.490082 6.209344
									CHANNELS 3 Xrotation Yrotation Zrotation
									JOINT LeftHandIndex2
									{
										OFFSET 7.536453 0.000000 0.000000
										CHANNELS 3 Xrotation Yrotation Zrotation
										JOINT LeftHandIndex3
										{
											OFFSET 7.512344 0.000000 0.000000
											CHANNELS 3 Xrotation Yrotation Zrotation
											JOINT LeftHandIndex4
											{
												OFFSET 10.212402 0.000000 0.000001
												CHANNELS 3 Xrotation Yrotation Zrotation
												End Site
												{
													OFFSET -5.180801 8.690506 1.388433
												}
											}
										}
									}
								}
							}
						}
					}
				}
				JOINT RightShoulder
				{
					OFFSET -17.399500 24.608795 1.168800
					CHANNELS 3 Xrotation Yrotation Zrotation
					JOINT RightArm
					{
						OFFSET -18.980635 5.765305 1.818600
						CHANNELS 3 Xrotation Yrotation Zrotation
						JOINT RightForeArm
						{
							OFFSET -49.290169 0.000000 0.000000
							CHANNELS 3 Xrotation Yrotation Zrotation
							JOINT RightHand
							{
								OFFSET -31.562012 0.000000 0.000000
								CHANNELS 3 Xrotation Yrotation Zrotation
								JOINT RightHandThumb1
								{
									OFFSET -6.133995 -4.388519 7.076070
									CHANNELS 3 Xrotation Yrotation Zrotation
									JOINT RightHandThumb2
									{
										OFFSET -6.037666 -3.485840 3.485847
										CHANNELS 3 Xrotation Yrotation Zrotation
										JOINT RightHandThumb3
										{
											OFFSET -6.496506 -3.750763 3.750761
											CHANNELS 3 Xrotation Yrotation Zrotation
											JOINT RightHandThumb4
											{
												OFFSET -5.616882 -3.242905 3.242910
												CHANNELS 3 Xrotation Yrotation Zrotation
												End Site
												{
													OFFSET 1.254608 7.132141 0.375429
												}
											}
										}
									}
								}
								JOINT RightHandIndex1
								{
									OFFSET -21.310577 -0.490082 6.209344
									CHANNELS 3 Xrotation Yrotation Zrotation
									JOINT RightHandIndex2
									{
										OFFSET -7.536453 0.000000 0.000000
										CHANNELS 3 Xrotation Yrotation Zrotation
										JOINT RightHandIndex3
										{
											OFFSET -7.512344 0.000000 0.000000
											CHANNELS 3 Xrotation Yrotation Zrotation
											JOINT RightHandIndex4
											{
												OFFSET -10.212402 0.000000 0.000001
												CHANNELS 3 Xrotation Yrotation Zrotation
												End Site
												{
													OFFSET 5.180801 8.690506 1.388433
												}
											}
										}
									}
								}
								JOINT RightHandMiddle1
								{
									OFFSET -23.373947 0.000000 0.000001
									CHANNELS 3 Xrotation Yrotation Zrotation
									JOINT RightHandMiddle2
									{
										OFFSET -6.996567 0.000000 0.000000
										CHANNELS 3 Xrotation Yrotation Zrotation
										JOINT RightHandMiddle3
										{
											OFFSET -7.015945 0.000000 0.000000
											CHANNELS 3 Xrotation Yrotation Zrotation
											JOINT RightHandMiddle4
											{
												OFFSET -7.721573 0.000000 0.000000
												CHANNELS 3 Xrotation Yrotation Zrotation
												End Site
												{
													OFFSET 4.651108 6.158463 0.251582
												}
											}
										}
									}
								}
								JOINT RightHandRing1
								{
									OFFSET -22.726120 -0.094986 -6.500475
									CHANNELS 3 Xrotation Yrotation Zrotation
									JOINT RightHandRing2
									{
										OFFSET -6.408615 0.000000 0.000000
										CHANNELS 3 Xrotation Yrotation Zrotation
										JOINT RightHandRing3
										{
											OFFSET -6.150223 0.000000 0.000000
											CHANNELS 3 Xrotation Yrotation Zrotation
											JOINT RightHandRing4
											{
												OFFSET -6.145386 0.000000 0.000000
												CHANNELS 3 Xrotation Yrotation Zrotation
												End Site
												{
													OFFSET 3.671402 4.923981 -0.202372
												}
											}
										}
									}
								}
								JOINT RightHandPinky1
								{
									OFFSET -18.920792 -0.453171 -11.426712
									CHANNELS 3 Xrotation Yrotation Zrotation
									JOINT RightHandPinky2
									{
										OFFSET -4.919586 0.000000 0.000000
										CHANNELS 3 Xrotation Yrotation Zrotation
										JOINT RightHandPinky3
										{
											OFFSET -5.233047 0.000000 0.000000
											CHANNELS 3 Xrotation Yrotation Zrotation
											JOINT RightHandPinky4
											{
												OFFSET -5.571716 0.000000 0.000000
												CHANNELS 3 Xrotation Yrotation Zrotation
												End Site
												{
													OFFSET 3.459808 4.342407 -0.466164
												}
											}
										}
									}
								}
							}
						}
					}
				}
			}
		}
	}
	JOINT LeftUpLeg
	{
		OFFSET 19.899099 -7.885101 -3.429500
		CHANNELS 3 Xrotation Yrotation Zrotation
		JOINT LeftLeg
		{
			OFFSET 1.745560 -36.997807 10.304700
			CHANNELS 3 Xrotation Yrotation Zrotation
			JOINT LeftFoot
			{
				OFFSET -1.745558 -29.803308 -13.615400
				CHANNELS 3 Xrotation Yrotation Zrotation
				JOINT LeftToeBase
				{
					OFFSET 1.181900 -18.539904 15.226099
					CHANNELS 3 Xrotation Yrotation Zrotation
					JOINT LeftToe_End
					{
						OFFSET -0.863701 1.402801 16.534700
						CHANNELS 3 Xrotation Yrotation Zrotation
						End Site
						{
							OFFSET 0.000000 16.616566 0.000000
						}
					}
				}
			}
		}
	}
	JOINT RightUpLeg
	{
		OFFSET -19.899099 -7.885101 -3.429500
		CHANNELS 3 Xrotation Yrotation Zrotation
		JOINT RightLeg
		{
			OFFSET -1.745560 -36.997807 10.304700
			CHANNELS 3 Xrotation Yrotation Zrotation
			JOINT RightFoot
			{
				OFFSET 1.745558 -29.803308 -13.615400
				CHANNELS 3 Xrotation Yrotation Zrotation
				JOINT RightToeBase
				{
					OFFSET -1.181900 -18.539904 15.226099
					CHANNELS 3 Xrotation Yrotation Zrotation
					JOINT RightToe_End
					{
						OFFSET 0.863701 1.402801 16.534700
						CHANNELS 3 Xrotation Yrotation Zrotation
						End Site
						{
							OFFSET 0.000000 16.616566 0.000000
						}
					}
				}
			}
		}
	}
}
MOTION
Frames: 4
Frame Time: 0.033333
-3.373013 76.949577 1.612566 3.020231 -58.274470 6.385905 11.191122 0.164869 -2.607177 8.434583 0.027694 -5.592324 8.457049 0.027875 -5.591863 -21.556055 25.063239 12.062631 -0.293715 25.465816 -3.208839 0.000000 -0.000000 -0.000000 -6.221641 -11.503810 -4.023771 -23.061586 9.569386 -36.639795 0.046352 -43.171218 -0.010980 22.743620 -5.684763 15.978929 -1.064237 -7.954998 8.490044 2.373402 19.986120 -2.038319 0.808205 1.237785 2.631727 0.000001 0.000001 -0.000001 -5.636048 7.709851 -13.878623 0.224379 0.276562 -46.588386 0.261291 0.249378 -46.286836 -0.000000 0.000000 -0.000006 6.111744 3.150891 -16.210938 0.047114 0.322438 -30.125471 0.408796 0.818941 -42.140672 0.000001 -0.000001 0.000007 8.495455 -0.329623 -0.915325 0.231477 0.661203 -29.901861 0.444141 0.213453 -44.357045 0.000000 -0.000001 -0.000001 13.340880 -1.006764 10.682270 -0.167570 0.303413 -31.105648 -0.143383 0.303606 -32.256231 -0.000001 0.000003 0.000001 -5.488223 10.658264 2.466489 -41.473892 -26.755605 30.079036 24.955718 111.862926 -23.308698 -8.702501 12.423075 -9.801899 0.264976 10.061097 -10.888491 1.383791 -17.412835 3.016258 3.342372 -13.253717 -8.262733 0.000000 0.000000 0.000001 19.443597 11.174428 -13.340205 -0.118671 -0.322712 18.035598 -0.089872 -0.286620 23.256594 -0.000001 -0.000002 0.000003 4.320484 2.436911 -4.811729 0.349094 -0.461222 26.890287 0.467483 0.154052 39.044838 -0.000001 0.000002 -0.000008 -7.005633 -10.695168 5.719818 0.111888 -0.089207 26.155897 0.451291 -0.473542 33.265050 -0.000001 -0.000000 -0.000003 -19.433560 -20.238214 5.987865 0.223745 -0.085791 36.844533 0.260822 -0.047537 36.471704 0.000001 0.000001 -0.000001 -34.177341 8.006926 29.899713 41.226103 -10.935129 -11.565933 -9.026438 -0.584641 -11.940916 -0.327587 1.238436 0.837258 0.000000 0.000002 0.000000 -28.986466 -6.547291 -33.058413 48.772824 8.389231 -4.785411 -22.850483 -1.278705 24.381781 -0.322813 -0.997379 -0.837149 -0.000000 -0.000000 -0.000000 
-2.973086 77.650871 0.976657 -3.637759 -51.935396 1.390658 12.230801 -0.171206 -2.787790 8.313580 -0.727665 -5.951118 8.345124 -0.361038 -5.765136 -14.581510 20.548537 4.685366 1.137738 19.142023 -1.617334 -0.000001 -0.000000 0.000000 -6.360644 -11.431555 -3.720883 -17.839522 3.864633 -31.881199 0.032378 -49.804578 -0.014253 12.219564 -3.441021 2.124053 -0.420663 -3.622232 10.070522 3.712279 23.972501 -0.525987 1.734407 5.328746 4.552486 0.000000 -0.000002 -0.000003 -5.595787 7.708969 -18.516745 0.242985 0.290645 -51.223485 0.282881 0.258873 -50.921946 0.000002 0.000003 0.000003 6.099700 3.199786 -20.844043 0.059237 0.353565 -34.760479 0.427532 0.832113 -46.775970 -0.000003 -0.000001 0.000001 8.450795 -0.281917 -5.550217 0.248936 0.676968 -34.537104 0.465375 0.226684 -48.992168 0.000001 -0.000002 0.000004 13.354425 -1.023024 6.048074 -0.162361 0.306182 -35.740812 -0.130962 0.303071 -36.891457 -0.000001 0.000003 0.000002 -5.565805 11.616427 1.553979 -41.140801 -30.903901 31.187286 33.262898 109.344089 -31.703095 -4.513581 15.121883 4.555308 0.474481 8.261559 -11.547554 1.968559 -19.046491 2.365250 3.582124 -14.971764 -9.021030 0.000001 -0.000001 0.000001 19.446320 11.176161 -11.427075 -0.116859 -0.324336 19.952050 -0.084503 -0.285806 25.173028 -0.000000 -0.000003 0.000001 4.299110 2.418382 -2.894367 0.359606 -0.467893 28.806750 0.478976 0.149570 40.961181 -0.000001 -0.000001 -0.000002 -7.009864 -10.712200 7.631391 0.113410 -0.102116 28.072226 0.462010 -0.481221 35.181553 0.000000 0.000004 -0.000007 -19.438182 -20.245879 7.891498 0.230224 -0.093051 38.760996 0.268997 -0.053412 38.388091 -0.000000 -0.000002 0.000002 -34.285463 7.833485 26.718107 38.695265 -12.568470 -10.042213 -4.032405 -3.302054 -10.830318 -0.327572 1.238358 0.837246 -0.000000 0.000002 0.000000 -20.824900 -10.073855 -34.065408 47.917991 6.994516 -4.506930 -25.124521 -4.869711 24.904987 -0.331895 -0.997246 -0.849050 -0.000000 0.000002 0.000000 
-2.880773 78.470062 -0.332940 -7.487880 -47.103945 -1.137915 12.884937 0.041295 -1.968086 9.431538 -0.512275 -5.708868 9.500888 -0.018112 -4.937799 -8.363560 20.104913 0.784647 5.885575 17.790657 -4.703316 0.000001 0.000000 -0.000000 -6.356090 -11.499769 -2.912754 -14.508374 2.290499 -27.703589 0.201702 -60.136749 0.141448 1.296719 0.536452 -8.906790 -0.005112 -0.463258 11.192094 4.640878 26.890520 0.543652 2.327133 8.320804 5.922748 -0.000001 0.000001 -0.000002 -5.622075 7.735709 -21.886861 0.257250 0.299947 -54.596096 0.299012 0.264631 -54.294605 0.000001 0.000002 -0.000005 6.082420 3.240978 -24.215462 0.068837 0.376050 -38.133110 0.443499 0.846590 -50.148683 -0.000002 0.000003 0.000005 8.420343 -0.243584 -8.922594 0.264293 0.688453 -37.909742 0.481705 0.237431 -52.364714 0.000000 0.000001 0.000007 13.375970 -1.033858 2.675706 -0.158408 0.307901 -39.113379 -0.127309 0.304688 -40.264054 -0.000000 0.000003 0.000001 -4.857101 14.209060 -0.773235 -43.448677 -33.933401 21.857802 32.130125 109.482543 -30.577565 -7.659293 14.877450 11.228188 0.618331 6.952080 -12.024101 2.385594 -20.238670 1.898081 3.743107 -16.223202 -9.572940 -0.000002 -0.000001 0.000002 19.448265 11.177546 -10.032307 -0.115509 -0.325542 21.346476 -0.082229 -0.285079 26.567477 -0.000002 -0.000002 0.000005 4.282293 2.404199 -1.499455 0.367374 -0.472551 30.201249 0.487411 0.146537 42.355492 0.000001 -0.000001 -0.000004 -7.019423 -10.724585 9.024794 0.116738 -0.111513 29.466659 0.467571 -0.487358 36.575953 -0.000001 -0.000000 -0.000003 -19.441560 -20.251642 9.288080 0.235030 -0.098098 40.155433 0.275077 -0.057465 39.782519 0.000002 -0.000001 0.000004 -33.887987 7.915254 23.457342 35.719413 -13.677164 -6.653764 0.408895 -4.830060 -11.954010 -0.327607 1.238518 0.837254 -0.000000 -0.000002 0.000000 -15.379168 -12.871129 -32.999472 47.604366 7.886945 -4.453858 -26.088845 -8.206723 23.034065 -0.704318 -0.552412 -0.106890 -0.000000 -0.000000 -0.000000 
-3.281649 78.509750 -2.276298 -9.707591 -44.233927 -2.158328 12.476875 0.250432 -1.114978 9.339043 -0.306044 -5.026956 9.423697 0.326515 -4.039948 -7.250843 20.079960 0.124103 9.209304 18.152114 -7.769289 0.000000 0.000000 0.000000 -6.174174 -11.674434 -1.504411 -12.561888 1.418077 -28.304905 0.154632 -62.052644 0.105060 -3.915087 0.905458 -13.683456 0.156202 0.858641 11.655149 5.018280 28.114201 0.984117 2.555099 9.574938 6.490650 -0.000000 0.000001 -0.000001 -5.646393 7.755942 -23.294128 0.263296 0.303545 -56.005946 0.305880 0.266736 -55.704407 -0.000001 -0.000002 -0.000001 6.073471 3.259762 -25.624925 0.072858 0.385309 -39.542909 0.451714 0.850489 -51.558615 -0.000004 0.000000 0.000005 8.404433 -0.226738 -10.332260 0.271167 0.693314 -39.319640 0.488965 0.241011 -53.774523 -0.000000 0.000000 0.000002 13.391130 -1.037855 1.265901 -0.156720 0.308584 -40.523184 -0.124731 0.304846 -41.673846 -0.000000 0.000001 0.000001 -3.852418 16.983194 -3.299890 -44.049710 -33.995894 14.715492 33.732569 109.738996 -32.099755 -8.800836 11.917837 13.827746 0.676403 6.404656 -12.222630 2.557768 -20.737887 1.704353 3.807042 -16.746613 -9.803891 0.000001 0.000000 0.000002 19.452143 11.178014 -9.449212 -0.114911 -0.326014 21.929419 -0.081590 -0.284751 27.150393 -0.000001 -0.000003 0.000003 4.275592 2.398192 -0.916428 0.370661 -0.474441 30.784165 0.490970 0.145342 42.938350 0.000001 0.000001 -0.000008 -7.024497 -10.729803 9.607984 0.118476 -0.115431 30.049520 0.470661 -0.489764 37.158883 -0.000000 0.000001 -0.000003 -19.446749 -20.253432 9.873406 0.237060 -0.100214 40.738253 0.277642 -0.059141 40.365445 -0.000002 0.000002 0.000001 -33.593558 7.756617 21.813935 33.204162 -14.719527 -4.160677 3.778733 -5.581100 -14.097749 -0.327603 1.238506 0.837275 -0.000000 -0.000002 0.000000 -14.532824 -11.779734 -33.387126 54.555542 12.281533 -5.327049 -25.001482 -4.414379 19.231873 -5.951158 0.390730 1.686349 -0.000000 -0.000003 0.000000 
